<svg width="16" height="17" viewBox="0 0 16 17" fill="none" xmlns="http://www.w3.org/2000/svg">
<path d="M13.135 1.48441C13.1672 1.39735 13.2903 1.39735 13.3225 1.48441L13.7792 2.7184C13.7893 2.74577 13.8109 2.76735 13.8382 2.77748L15.0722 3.2341C15.1593 3.26631 15.1593 3.38945 15.0722 3.42167L13.8382 3.87828C13.8109 3.88841 13.7893 3.90999 13.7792 3.93736L13.3225 5.17135C13.2903 5.25842 13.1672 5.25842 13.135 5.17135L12.6784 3.93736C12.6682 3.90999 12.6466 3.88841 12.6193 3.87828L11.3853 3.42167C11.2982 3.38945 11.2982 3.26631 11.3853 3.2341L12.6193 2.77748C12.6466 2.76735 12.6682 2.74577 12.6784 2.7184L13.135 1.48441Z" fill="#737373"/>
<path d="M8.00708 1.8689L9.8114 6.745L14.6875 8.54932L9.8114 10.3536L8.00708 15.2297L6.20276 10.3536L1.32666 8.54932L6.20276 6.745L8.00708 1.8689Z" stroke="#737373" stroke-width="1.2" stroke-linejoin="round"/>
</svg>
